<svg xmlns="http://www.w3.org/2000/svg" width="176" height="60" viewBox="0 0 176 60" fill="none">
<path fill-rule="evenodd" clip-rule="evenodd" d="M84.7355 7.62386C84.7355 8.43868 84.7113 8.96379 84.6027 9.76653L84.3552 11.5169C88.4112 11.5169 88.2422 15.7177 85.8581 16.098C84.2526 16.3575 83.4016 15.3858 83.0032 15.3556C82.9911 16.0195 81.953 17.6612 81.5426 18.2769L78.3135 22.4053C78.1747 22.5743 78.1445 22.6226 77.9876 22.7795C77.8367 22.9304 77.7884 23.033 77.6375 23.1899C77.384 23.4495 77.1607 23.6607 76.9072 23.9202C75.3681 25.4594 74.1307 26.2319 72.2657 27.3365C72.0846 27.4451 71.9579 27.4994 71.7768 27.6081L70.799 28.0849C69.4953 28.6402 69.0789 28.8514 67.5518 29.2136C66.7129 29.4127 65.7834 29.4188 65.222 29.962L64.9806 30.2577C64.6366 30.7587 64.4615 31.2234 64.2503 31.8029C64.0209 32.4427 63.6709 34.193 63.701 34.875C63.7071 35.0863 63.7433 35.3036 63.7614 35.5752C63.7855 35.9011 63.9304 36.5047 64.0209 36.7763C65.2039 40.3072 69.6281 39.7821 72.477 39.2147C73.5453 39.0035 75.2534 38.3516 76.2493 37.8506C78.2169 36.8668 80.3234 35.4605 82.0677 34.1508C82.3574 33.9335 82.6169 33.7403 82.8885 33.511C83.5585 32.9497 84.1741 32.334 84.7837 31.7304C85.1459 31.3683 86.4677 29.7507 86.7574 29.3222L87.6326 27.9823C87.7352 27.8314 87.8076 27.7046 87.8982 27.5417C89.8115 24.1074 90.9643 20.7938 90.9643 16.5989C90.9643 13.9191 90.2943 10.4184 89.0691 7.99807C88.4414 6.75472 88.0672 6.23565 87.3489 5.17337C87.2463 5.02247 87.1679 4.88969 87.0652 4.75087C86.679 4.20162 85.1097 2.1857 84.5242 2.04688C84.5242 3.98433 84.7415 5.69847 84.7415 7.61783L84.7355 7.62386Z" fill="#FAFAFA"/>
<path fill-rule="evenodd" clip-rule="evenodd" d="M92.4668 16.6525C92.4668 18.5296 92.1952 20.1411 91.8511 21.7104C91.6157 22.7847 90.9035 24.9636 90.4508 25.9354C89.5938 27.7702 89.5998 27.7521 88.5074 29.6111L87.3425 31.2589C86.8717 31.8383 86.4552 32.1099 86.25 32.979C86.413 33.0213 87.4813 33.818 87.7348 33.987C89.5395 35.1821 90.137 35.7977 92.2374 36.9445L93.861 37.8076C95.3096 38.5319 98.0619 39.5761 99.613 39.5761C100.549 39.5761 101.52 39.4071 102.311 39.2501C103.772 38.9544 105.244 38.049 105.848 36.6729C106.361 35.502 106.572 33.9146 106.138 32.6169C105.944 32.0375 105.763 31.7659 105.552 31.3071L105.299 30.8062C104.417 28.9412 101.635 24.3842 100.458 22.3985L99.0276 20.0445C98.6413 19.3987 98.261 18.8012 97.8808 18.1674C96.402 15.6928 94.7422 13.1457 93.2695 10.6651L89.2015 4.13443C89.0144 3.88696 88.7186 3.42825 88.4229 3.34375C88.5496 3.88093 88.8212 4.41207 89.0566 4.87682L90.1189 7.05571C91.2657 9.34324 91.5071 10.1762 92.0262 12.7172C92.2616 13.8821 92.4788 15.2884 92.4788 16.6404L92.4668 16.6525Z" fill="#FAFAFA"/>
<path fill-rule="evenodd" clip-rule="evenodd" d="M66.5078 27.7925C66.707 27.7442 66.9665 27.6175 67.1717 27.539C68.6867 26.9294 70.0447 26.6216 71.6864 25.6197C72.3926 25.1911 72.6884 25.0825 73.4066 24.5815C75.6217 23.0364 76.9134 21.8715 78.6034 19.6141C78.7482 19.421 78.8387 19.2641 78.9836 19.0709C79.9916 17.725 80.5891 16.216 81.3677 14.9667C82.7137 12.8179 83.6673 15.3529 85.2728 15.3529C85.8945 15.3529 86.323 14.6166 86.4075 14.2122C86.4739 13.8983 86.4075 13.5845 86.3049 13.3008C86.1178 12.7998 86.1359 12.7636 85.7315 12.6852C85.4116 12.6188 85.0616 12.5645 84.7356 12.5463C84.1864 12.5162 83.2207 12.5403 82.9068 12.1057C82.3395 11.3271 83.0637 7.82643 83.0637 6.16661C83.0637 4.96551 83.0637 4.67579 82.9128 3.45055C82.774 2.33394 82.4662 1.57344 81.3496 2.49691C80.5167 3.18498 80.1787 3.72215 79.5389 4.57922C78.5249 5.92518 77.6075 7.97128 76.6961 9.47417L74.3603 13.6267C74.2033 13.9164 74.0524 14.1337 73.8895 14.4536C73.805 14.6226 73.7567 14.6709 73.6722 14.8339L67.8296 25.2153C67.4916 25.837 66.5501 27.364 66.5138 27.7925H66.5078Z" fill="#FAFAFA"/>
<path fill-rule="evenodd" clip-rule="evenodd" d="M109.865 0.0120714V39.4855H117.694V30.4079C117.694 30.4079 118.164 27.6858 120.144 27.4021C122.13 27.1184 123.476 27.3296 124.484 27.9574C125.492 28.579 133.93 39.6727 133.93 39.6727L143.575 39.8175C143.575 39.8175 135.064 29.919 134.751 28.4463C134.437 26.9735 134.497 26.4907 134.95 25.8388C135.402 25.187 137.346 23.9376 137.346 23.9376C137.346 23.9376 139.35 22.2778 140.641 19.3384C142.494 15.1315 143.14 8.51637 136.525 2.29357C134.165 0.0724284 128.739 0.0663927 125.703 0.0241428C121.146 -0.0301785 114.507 0.0241428 109.859 0.0241428L109.865 0.0120714ZM117.657 10.4478L117.639 17.7751C117.639 17.7751 118.237 20.0627 120.307 20.1713C122.377 20.28 128.751 20.28 128.751 20.28C134.751 18.5417 135.421 11.5282 130.695 8.3353C128.443 6.81431 125.878 7.3213 120.404 7.50238C120.404 7.50238 117.597 7.59895 117.664 10.4478H117.657Z" fill="#FAFAFA"/>
<path fill-rule="evenodd" clip-rule="evenodd" d="M19.4757 32.4699C9.95136 32.4699 7.2353 28.5347 5.40648 28.3838C5.20127 29.1503 4.00016 30.4842 3.46299 31.2024C2.7206 32.1923 1.95406 33.1097 1.32031 34.0573C2.38863 35.6507 6.3058 37.4554 8.44847 38.2763C12.7459 39.918 18.4134 40.5879 23.3385 39.7369C24.8595 39.4713 26.465 39.0609 27.7265 38.4513C30.2796 37.214 32.5188 35.4093 33.5208 32.6691C34.5529 29.8504 34.2088 25.7462 32.9051 23.35C27.9196 14.224 10.1686 18.286 10.1686 10.9044C10.1686 7.93482 13.9892 7.50025 16.2949 7.50025C19.5481 7.50025 22.7712 8.44181 25.5718 9.57049C26.0365 9.7576 26.3202 9.87831 26.7789 10.1801C27.3221 10.5302 27.4549 10.7354 28.0947 10.9044C28.7405 10.4698 29.845 8.68928 30.3641 7.95292C30.9194 7.16225 32.199 5.66539 32.4042 4.77211C31.692 4.57897 30.8107 3.67361 29.6096 3.02779C26.5495 1.39815 22.735 0.305691 18.8721 0.00390625H14.6351C12.094 0.215156 9.64958 0.818726 7.51294 1.89308C1.76695 4.77814 -1.59493 14.6103 6.3903 19.8915C8.44244 21.2435 10.3497 22.0946 13.0597 22.7525C14.1341 23.012 15.8724 23.4345 17.0071 23.5733C19.9525 23.9294 26.8332 24.5571 25.62 28.8364C24.8414 31.5767 22.2944 32.4639 19.4697 32.4639L19.4757 32.4699Z" fill="#FAFAFA"/>
<path fill-rule="evenodd" clip-rule="evenodd" d="M174.096 0.0117188H143V7.50202C144.243 7.50202 151.77 7.32095 152.615 7.64688C153.237 7.88831 153.985 8.80573 154.202 9.46362C155.017 11.89 154.094 30.6369 154.118 35.4171C154.124 36.4855 154.112 37.5477 154.1 38.6161C154.082 40.4026 154.178 40.2276 155.922 40.1974C158.198 40.1552 160.473 40.1853 162.743 40.1853C162.743 31.6388 162.743 23.0862 162.743 14.5396C162.743 7.0252 162.996 7.1942 171.597 7.2787C173.293 7.29681 173.897 7.52616 174.09 6.60874V0.0117188H174.096Z" fill="#FAFAFA"/>
<path fill-rule="evenodd" clip-rule="evenodd" d="M35.5078 7.50202H44.8149C45.2132 7.50202 45.8349 7.99695 46.0824 8.27459C47.5913 9.97062 46.8549 11.6485 46.8549 13.4049V39.962H55.2506V11.1355C55.2506 10.037 55.4618 9.12563 56.0232 8.49791C56.4396 8.03316 57.6407 7.27267 58.4314 7.27267H66.3744V0.0117188H35.5078V7.50202Z" fill="#FAFAFA"/>
<path d="M1.72968 53.2138H5.65512V53.6799H1.72968V53.2138ZM1.79182 56.6525H6.26621V57.1289H1.2636V49.8787H6.11085V50.3552H1.79182V56.6525ZM9.30253 57.1703C8.85371 57.1703 8.43251 57.1047 8.03893 56.9735C7.65226 56.8424 7.3519 56.6766 7.13784 56.4764L7.37606 56.0621C7.58321 56.2416 7.85941 56.397 8.20465 56.5282C8.5499 56.6525 8.92276 56.7146 9.32325 56.7146C9.88945 56.7146 10.2968 56.6214 10.5454 56.435C10.794 56.2485 10.9183 56.0034 10.9183 55.6996C10.9183 55.4786 10.8527 55.306 10.7215 55.1817C10.5972 55.0505 10.428 54.9504 10.214 54.8814C9.99993 54.8123 9.76516 54.7571 9.50968 54.7156C9.2542 54.6673 8.99872 54.6155 8.74324 54.5603C8.48775 54.505 8.25299 54.4256 8.03893 54.3221C7.82488 54.2185 7.65226 54.0769 7.52107 53.8974C7.39678 53.711 7.33463 53.4659 7.33463 53.162C7.33463 52.8858 7.41059 52.6373 7.5625 52.4163C7.7144 52.1953 7.94227 52.0193 8.24608 51.8881C8.5499 51.75 8.92967 51.6809 9.38539 51.6809C9.72373 51.6809 10.0621 51.7293 10.4004 51.8259C10.7457 51.9226 11.0253 52.0503 11.2394 52.2092L11.0011 52.6235C10.7733 52.4508 10.5178 52.3265 10.2347 52.2506C9.95159 52.1746 9.66504 52.1367 9.37503 52.1367C8.85026 52.1367 8.46359 52.2333 8.21501 52.4267C7.97334 52.62 7.8525 52.8617 7.8525 53.1517C7.8525 53.3795 7.91465 53.5625 8.03893 53.7006C8.17013 53.8318 8.34275 53.9354 8.5568 54.0113C8.77085 54.0804 9.00562 54.1391 9.2611 54.1874C9.51659 54.2288 9.77207 54.2772 10.0275 54.3324C10.283 54.3877 10.5178 54.4671 10.7318 54.5706C10.9459 54.6673 11.1151 54.8054 11.2394 54.9849C11.3706 55.1576 11.4362 55.3923 11.4362 55.6892C11.4362 55.9861 11.3533 56.2451 11.1876 56.466C11.0288 56.687 10.7905 56.8596 10.4729 56.9839C10.1553 57.1082 9.76516 57.1703 9.30253 57.1703ZM15.0254 57.1703C14.5006 57.1703 14.0311 57.053 13.6168 56.8182C13.2094 56.5834 12.8849 56.2589 12.6432 55.8446C12.4084 55.4303 12.291 54.9573 12.291 54.4256C12.291 53.8871 12.4084 53.4106 12.6432 52.9963C12.8849 52.582 13.2094 52.2609 13.6168 52.0331C14.0311 51.7983 14.5006 51.6809 15.0254 51.6809C15.4604 51.6809 15.854 51.7638 16.2061 51.9295C16.5652 52.0952 16.8552 52.3438 17.0761 52.6752L16.6929 52.9549C16.4996 52.6787 16.2579 52.475 15.9679 52.3438C15.6779 52.2126 15.3637 52.147 15.0254 52.147C14.6042 52.147 14.2244 52.2437 13.8861 52.437C13.5546 52.6235 13.2922 52.8893 13.0989 53.2345C12.9125 53.5729 12.8193 53.9699 12.8193 54.4256C12.8193 54.8814 12.9125 55.2818 13.0989 55.6271C13.2922 55.9654 13.5546 56.2313 13.8861 56.4246C14.2244 56.611 14.6042 56.7043 15.0254 56.7043C15.3637 56.7043 15.6779 56.6387 15.9679 56.5075C16.2579 56.3763 16.4996 56.1726 16.6929 55.8964L17.0761 56.176C16.8552 56.5075 16.5652 56.756 16.2061 56.9218C15.854 57.0875 15.4604 57.1703 15.0254 57.1703ZM20.6484 57.1703C20.1305 57.1703 19.6679 57.053 19.2605 56.8182C18.86 56.5834 18.5389 56.2589 18.2973 55.8446C18.0625 55.4303 17.9451 54.9573 17.9451 54.4256C17.9451 53.8871 18.0625 53.4141 18.2973 53.0067C18.5389 52.5924 18.86 52.2678 19.2605 52.0331C19.6679 51.7983 20.1305 51.6809 20.6484 51.6809C21.1662 51.6809 21.6289 51.7983 22.0363 52.0331C22.4437 52.2678 22.7647 52.5924 22.9995 53.0067C23.2343 53.4141 23.3517 53.8871 23.3517 54.4256C23.3517 54.9573 23.2343 55.4303 22.9995 55.8446C22.7647 56.2589 22.4437 56.5834 22.0363 56.8182C21.6289 57.053 21.1662 57.1703 20.6484 57.1703ZM20.6484 56.7043C21.0627 56.7043 21.4355 56.611 21.767 56.4246C22.0984 56.2313 22.3573 55.962 22.5438 55.6167C22.7302 55.2715 22.8234 54.8745 22.8234 54.4256C22.8234 53.9699 22.7302 53.5729 22.5438 53.2345C22.3573 52.8893 22.0984 52.6235 21.767 52.437C21.4355 52.2437 21.0627 52.147 20.6484 52.147C20.2341 52.147 19.8612 52.2437 19.5298 52.437C19.2053 52.6235 18.9463 52.8893 18.753 53.2345C18.5665 53.5729 18.4733 53.9699 18.4733 54.4256C18.4733 54.8745 18.5665 55.2715 18.753 55.6167C18.9463 55.962 19.2053 56.2313 19.5298 56.4246C19.8612 56.611 20.2341 56.7043 20.6484 56.7043ZM24.9583 57.1289V49.4437H25.4761V57.1289H24.9583ZM31.0664 57.1289V55.8964L31.0457 55.7099V53.6799C31.0457 53.1758 30.9076 52.7926 30.6314 52.5302C30.3621 52.2678 29.9651 52.1367 29.4403 52.1367C29.0675 52.1367 28.7188 52.2023 28.3942 52.3334C28.0766 52.4577 27.8039 52.62 27.576 52.8202L27.3171 52.4474C27.5864 52.2057 27.9109 52.0193 28.2907 51.8881C28.6704 51.75 29.0675 51.6809 29.4818 51.6809C30.1515 51.6809 30.6659 51.8501 31.025 52.1884C31.3841 52.5268 31.5636 53.0308 31.5636 53.7006V57.1289H31.0664ZM29.1192 57.1703C28.7188 57.1703 28.3701 57.1082 28.0732 56.9839C27.7831 56.8527 27.5587 56.6697 27.3999 56.435C27.248 56.2002 27.1721 55.9309 27.1721 55.6271C27.1721 55.3509 27.2342 55.1023 27.3585 54.8814C27.4897 54.6535 27.7037 54.4705 28.0007 54.3324C28.2976 54.1874 28.6946 54.1149 29.1917 54.1149H31.1804V54.5189H29.2021C28.6428 54.5189 28.2492 54.6224 28.0214 54.8296C27.8004 55.0367 27.6899 55.2957 27.6899 55.6064C27.6899 55.9516 27.8211 56.2278 28.0835 56.435C28.3459 56.6421 28.7153 56.7457 29.1917 56.7457C29.6475 56.7457 30.0307 56.6421 30.3414 56.435C30.659 56.2278 30.8938 55.9275 31.0457 55.5339L31.1907 55.886C31.0457 56.2796 30.7971 56.5938 30.445 56.8285C30.0997 57.0564 29.6578 57.1703 29.1192 57.1703ZM38.4393 57.1703C37.9352 57.1703 37.4795 57.0564 37.0721 56.8285C36.6716 56.5938 36.354 56.2692 36.1192 55.855C35.8844 55.4407 35.7671 54.9642 35.7671 54.4256C35.7671 53.8801 35.8844 53.4037 36.1192 52.9963C36.354 52.582 36.6716 52.2609 37.0721 52.0331C37.4795 51.7983 37.9352 51.6809 38.4393 51.6809C38.9157 51.6809 39.3438 51.7914 39.7236 52.0124C40.1102 52.2333 40.4141 52.5475 40.635 52.9549C40.8629 53.3623 40.9768 53.8525 40.9768 54.4256C40.9768 54.9849 40.8663 55.4717 40.6454 55.886C40.4244 56.3003 40.1206 56.6179 39.7339 56.8389C39.3542 57.0599 38.9226 57.1703 38.4393 57.1703ZM38.4703 56.7043C38.8846 56.7043 39.254 56.611 39.5786 56.4246C39.91 56.2313 40.1689 55.962 40.3554 55.6167C40.5487 55.2715 40.6454 54.8745 40.6454 54.4256C40.6454 53.9699 40.5487 53.5729 40.3554 53.2345C40.1689 52.8893 39.91 52.6235 39.5786 52.437C39.254 52.2437 38.8846 52.147 38.4703 52.147C38.056 52.147 37.6832 52.2437 37.3517 52.437C37.0272 52.6235 36.7683 52.8893 36.5749 53.2345C36.3885 53.5729 36.2953 53.9699 36.2953 54.4256C36.2953 54.8745 36.3885 55.2715 36.5749 55.6167C36.7683 55.962 37.0272 56.2313 37.3517 56.4246C37.6832 56.611 38.056 56.7043 38.4703 56.7043ZM40.6557 57.1289V55.3578L40.749 54.4153L40.6454 53.4728V49.4437H41.1632V57.1289H40.6557ZM45.5424 57.1703C44.9969 57.1703 44.5136 57.053 44.0924 56.8182C43.6781 56.5834 43.3501 56.2589 43.1084 55.8446C42.8736 55.4303 42.7563 54.9573 42.7563 54.4256C42.7563 53.8871 42.8667 53.4141 43.0877 53.0067C43.3156 52.5924 43.6263 52.2678 44.0199 52.0331C44.4134 51.7983 44.8553 51.6809 45.3456 51.6809C45.8358 51.6809 46.2743 51.7949 46.661 52.0227C47.0546 52.2506 47.3618 52.5717 47.5828 52.986C47.8107 53.3933 47.9246 53.8663 47.9246 54.4049C47.9246 54.4256 47.9211 54.4498 47.9142 54.4774C47.9142 54.4981 47.9142 54.5223 47.9142 54.5499H43.1395V54.146H47.6346L47.4274 54.3428C47.4343 53.9216 47.3446 53.5453 47.1581 53.2138C46.9786 52.8755 46.7335 52.6131 46.4228 52.4267C46.112 52.2333 45.753 52.1367 45.3456 52.1367C44.9451 52.1367 44.5861 52.2333 44.2684 52.4267C43.9577 52.6131 43.7126 52.8755 43.5331 53.2138C43.3535 53.5453 43.2638 53.925 43.2638 54.3531V54.4463C43.2638 54.8883 43.3604 55.2818 43.5538 55.6271C43.754 55.9654 44.0268 56.2313 44.372 56.4246C44.7173 56.611 45.1108 56.7043 45.5527 56.7043C45.898 56.7043 46.2191 56.6421 46.516 56.5178C46.8198 56.3935 47.0753 56.2036 47.2824 55.9482L47.5828 56.29C47.348 56.58 47.0511 56.8009 46.6921 56.9528C46.3399 57.0978 45.9567 57.1703 45.5424 57.1703ZM55.4183 57.1807C54.8797 57.1807 54.3791 57.0909 53.9165 56.9114C53.4608 56.725 53.0637 56.466 52.7254 56.1346C52.387 55.8032 52.1247 55.4165 51.9382 54.9746C51.7518 54.5258 51.6586 54.0355 51.6586 53.5038C51.6586 52.9721 51.7518 52.4854 51.9382 52.0434C52.1247 51.5946 52.387 51.2045 52.7254 50.8731C53.0706 50.5416 53.4711 50.2861 53.9268 50.1066C54.3826 49.9202 54.8797 49.827 55.4183 49.827C55.9293 49.827 56.4057 49.9098 56.8476 50.0755C57.2964 50.2413 57.6797 50.4933 57.9973 50.8316L57.6658 51.1734C57.3551 50.8696 57.0099 50.6521 56.6301 50.5209C56.2572 50.3828 55.8602 50.3138 55.439 50.3138C54.9764 50.3138 54.5448 50.3932 54.1443 50.552C53.7508 50.7108 53.4055 50.9352 53.1086 51.2252C52.8186 51.5152 52.5907 51.8536 52.425 52.2402C52.2662 52.6269 52.1868 53.0481 52.1868 53.5038C52.1868 53.9596 52.2662 54.3808 52.425 54.7674C52.5907 55.1541 52.8186 55.4924 53.1086 55.7824C53.4055 56.0725 53.7508 56.2969 54.1443 56.4557C54.5448 56.6145 54.9764 56.6939 55.439 56.6939C55.8602 56.6939 56.2572 56.6283 56.6301 56.4971C57.0099 56.359 57.3551 56.1346 57.6658 55.8239L57.9973 56.1657C57.6797 56.504 57.2964 56.7595 56.8476 56.9321C56.4057 57.0978 55.9293 57.1807 55.4183 57.1807ZM62.9174 57.1289V55.8964L62.8966 55.7099V53.6799C62.8966 53.1758 62.7585 52.7926 62.4823 52.5302C62.2131 52.2678 61.816 52.1367 61.2912 52.1367C60.9184 52.1367 60.5697 52.2023 60.2452 52.3334C59.9275 52.4577 59.6548 52.62 59.4269 52.8202L59.168 52.4474C59.4373 52.2057 59.7618 52.0193 60.1416 51.8881C60.5213 51.75 60.9184 51.6809 61.3327 51.6809C62.0025 51.6809 62.5169 51.8501 62.8759 52.1884C63.235 52.5268 63.4145 53.0308 63.4145 53.7006V57.1289H62.9174ZM60.9702 57.1703C60.5697 57.1703 60.221 57.1082 59.9241 56.9839C59.6341 56.8527 59.4097 56.6697 59.2508 56.435C59.0989 56.2002 59.023 55.9309 59.023 55.6271C59.023 55.3509 59.0851 55.1023 59.2094 54.8814C59.3406 54.6535 59.5547 54.4705 59.8516 54.3324C60.1485 54.1874 60.5455 54.1149 61.0427 54.1149H63.0313V54.5189H61.053C60.4937 54.5189 60.1002 54.6224 59.8723 54.8296C59.6513 55.0367 59.5409 55.2957 59.5409 55.6064C59.5409 55.9516 59.672 56.2278 59.9344 56.435C60.1968 56.6421 60.5662 56.7457 61.0427 56.7457C61.4984 56.7457 61.8816 56.6421 62.1923 56.435C62.51 56.2278 62.7447 55.9275 62.8966 55.5339L63.0416 55.886C62.8966 56.2796 62.6481 56.5938 62.2959 56.8285C61.9507 57.0564 61.5088 57.1703 60.9702 57.1703ZM68.2618 57.1703C67.7854 57.1703 67.3538 57.0599 66.9672 56.8389C66.5874 56.6179 66.2836 56.3038 66.0557 55.8964C65.8348 55.4821 65.7243 54.9918 65.7243 54.4256C65.7243 53.8594 65.8348 53.3726 66.0557 52.9652C66.2836 52.551 66.5874 52.2333 66.9672 52.0124C67.3538 51.7914 67.7854 51.6809 68.2618 51.6809C68.7728 51.6809 69.2285 51.7983 69.629 52.0331C70.0364 52.2609 70.354 52.582 70.5819 52.9963C70.8167 53.4106 70.934 53.8871 70.934 54.4256C70.934 54.9642 70.8167 55.4407 70.5819 55.855C70.354 56.2692 70.0364 56.5938 69.629 56.8285C69.2285 57.0564 68.7728 57.1703 68.2618 57.1703ZM65.5482 59.1382V51.7224H66.0454V53.4935L65.9625 54.436L66.0661 55.3785V59.1382H65.5482ZM68.2308 56.7043C68.6451 56.7043 69.0179 56.611 69.3494 56.4246C69.6808 56.2313 69.9397 55.962 70.1262 55.6167C70.3195 55.2715 70.4162 54.8745 70.4162 54.4256C70.4162 53.9699 70.3195 53.5729 70.1262 53.2345C69.9397 52.8893 69.6808 52.6235 69.3494 52.437C69.0179 52.2437 68.6451 52.147 68.2308 52.147C67.8165 52.147 67.4436 52.2437 67.1122 52.437C66.7876 52.6235 66.5287 52.8893 66.3354 53.2345C66.1489 53.5729 66.0557 53.9699 66.0557 54.4256C66.0557 54.8745 66.1489 55.2715 66.3354 55.6167C66.5287 55.962 66.7876 56.2313 67.1122 56.4246C67.4436 56.611 67.8165 56.7043 68.2308 56.7043ZM75.9248 57.1289V55.8964L75.904 55.7099V53.6799C75.904 53.1758 75.7659 52.7926 75.4897 52.5302C75.2204 52.2678 74.8234 52.1367 74.2986 52.1367C73.9258 52.1367 73.5771 52.2023 73.2525 52.3334C72.9349 52.4577 72.6622 52.62 72.4343 52.8202L72.1754 52.4474C72.4447 52.2057 72.7692 52.0193 73.149 51.8881C73.5287 51.75 73.9258 51.6809 74.3401 51.6809C75.0098 51.6809 75.5243 51.8501 75.8833 52.1884C76.2424 52.5268 76.4219 53.0308 76.4219 53.7006V57.1289H75.9248ZM73.9776 57.1703C73.5771 57.1703 73.2284 57.1082 72.9315 56.9839C72.6415 56.8527 72.4171 56.6697 72.2582 56.435C72.1063 56.2002 72.0304 55.9309 72.0304 55.6271C72.0304 55.3509 72.0925 55.1023 72.2168 54.8814C72.348 54.6535 72.5621 54.4705 72.859 54.3324C73.1559 54.1874 73.5529 54.1149 74.0501 54.1149H76.0387V54.5189H74.0604C73.5011 54.5189 73.1075 54.6224 72.8797 54.8296C72.6587 55.0367 72.5482 55.2957 72.5482 55.6064C72.5482 55.9516 72.6794 56.2278 72.9418 56.435C73.2042 56.6421 73.5736 56.7457 74.0501 56.7457C74.5058 56.7457 74.889 56.6421 75.1997 56.435C75.5174 56.2278 75.7521 55.9275 75.904 55.5339L76.049 55.886C75.904 56.2796 75.6555 56.5938 75.3033 56.8285C74.9581 57.0564 74.5161 57.1703 73.9776 57.1703ZM80.6996 57.1703C80.1748 57.1703 79.7053 57.053 79.291 56.8182C78.8836 56.5834 78.5591 56.2589 78.3174 55.8446C78.0826 55.4303 77.9652 54.9573 77.9652 54.4256C77.9652 53.8871 78.0826 53.4106 78.3174 52.9963C78.5591 52.582 78.8836 52.2609 79.291 52.0331C79.7053 51.7983 80.1748 51.6809 80.6996 51.6809C81.1346 51.6809 81.5282 51.7638 81.8803 51.9295C82.2394 52.0952 82.5294 52.3438 82.7503 52.6752L82.3671 52.9549C82.1738 52.6787 81.9321 52.475 81.6421 52.3438C81.3521 52.2126 81.0379 52.147 80.6996 52.147C80.2784 52.147 79.8986 52.2437 79.5603 52.437C79.2288 52.6235 78.9664 52.8893 78.7731 53.2345C78.5867 53.5729 78.4935 53.9699 78.4935 54.4256C78.4935 54.8814 78.5867 55.2818 78.7731 55.6271C78.9664 55.9654 79.2288 56.2313 79.5603 56.4246C79.8986 56.611 80.2784 56.7043 80.6996 56.7043C81.0379 56.7043 81.3521 56.6387 81.6421 56.5075C81.9321 56.3763 82.1738 56.1726 82.3671 55.8964L82.7503 56.176C82.5294 56.5075 82.2394 56.756 81.8803 56.9218C81.5282 57.0875 81.1346 57.1703 80.6996 57.1703ZM84.2097 57.1289V51.7224H84.7275V57.1289H84.2097ZM84.4686 50.407C84.3512 50.407 84.2511 50.3655 84.1682 50.2827C84.0854 50.1998 84.044 50.1032 84.044 49.9927C84.044 49.8753 84.0854 49.7752 84.1682 49.6923C84.2511 49.6095 84.3512 49.568 84.4686 49.568C84.5929 49.568 84.693 49.6095 84.769 49.6923C84.8518 49.7683 84.8933 49.8649 84.8933 49.9823C84.8933 50.0997 84.8518 50.1998 84.769 50.2827C84.693 50.3655 84.5929 50.407 84.4686 50.407ZM88.4846 57.1703C88.0082 57.1703 87.6422 57.0391 87.3867 56.7768C87.1381 56.5144 87.0138 56.1553 87.0138 55.6996V50.5416H87.5317V55.6478C87.5317 55.993 87.618 56.2589 87.7907 56.4453C87.9633 56.6318 88.2118 56.725 88.5364 56.725C88.8747 56.725 89.1544 56.6248 89.3753 56.4246L89.5928 56.7871C89.4547 56.9183 89.2856 57.015 89.0853 57.0771C88.892 57.1393 88.6917 57.1703 88.4846 57.1703ZM86.0195 52.1677V51.7224H89.251V52.1677H86.0195ZM94.4446 57.1289V55.8964L94.4239 55.7099V53.6799C94.4239 53.1758 94.2858 52.7926 94.0096 52.5302C93.7403 52.2678 93.3433 52.1367 92.8185 52.1367C92.4456 52.1367 92.0969 52.2023 91.7724 52.3334C91.4548 52.4577 91.182 52.62 90.9542 52.8202L90.6952 52.4474C90.9645 52.2057 91.2891 52.0193 91.6688 51.8881C92.0486 51.75 92.4456 51.6809 92.8599 51.6809C93.5297 51.6809 94.0441 51.8501 94.4032 52.1884C94.7622 52.5268 94.9418 53.0308 94.9418 53.7006V57.1289H94.4446ZM92.4974 57.1703C92.0969 57.1703 91.7482 57.1082 91.4513 56.9839C91.1613 56.8527 90.9369 56.6697 90.7781 56.435C90.6262 56.2002 90.5502 55.9309 90.5502 55.6271C90.5502 55.3509 90.6124 55.1023 90.7367 54.8814C90.8679 54.6535 91.0819 54.4705 91.3788 54.3324C91.6757 54.1874 92.0728 54.1149 92.5699 54.1149H94.5585V54.5189H92.5803C92.021 54.5189 91.6274 54.6224 91.3995 54.8296C91.1786 55.0367 91.0681 55.2957 91.0681 55.6064C91.0681 55.9516 91.1993 56.2278 91.4617 56.435C91.7241 56.6421 92.0935 56.7457 92.5699 56.7457C93.0257 56.7457 93.4089 56.6421 93.7196 56.435C94.0372 56.2278 94.272 55.9275 94.4239 55.5339L94.5689 55.886C94.4239 56.2796 94.1753 56.5938 93.8232 56.8285C93.4779 57.0564 93.036 57.1703 92.4974 57.1703ZM99.2194 57.1703C98.6947 57.1703 98.2251 57.053 97.8108 56.8182C97.4034 56.5834 97.0789 56.2589 96.8372 55.8446C96.6025 55.4303 96.4851 54.9573 96.4851 54.4256C96.4851 53.8871 96.6025 53.4106 96.8372 52.9963C97.0789 52.582 97.4034 52.2609 97.8108 52.0331C98.2251 51.7983 98.6947 51.6809 99.2194 51.6809C99.6544 51.6809 100.048 51.7638 100.4 51.9295C100.759 52.0952 101.049 52.3438 101.27 52.6752L100.887 52.9549C100.694 52.6787 100.452 52.475 100.162 52.3438C99.8719 52.2126 99.5578 52.147 99.2194 52.147C98.7982 52.147 98.4185 52.2437 98.0801 52.437C97.7487 52.6235 97.4863 52.8893 97.293 53.2345C97.1065 53.5729 97.0133 53.9699 97.0133 54.4256C97.0133 54.8814 97.1065 55.2818 97.293 55.6271C97.4863 55.9654 97.7487 56.2313 98.0801 56.4246C98.4185 56.611 98.7982 56.7043 99.2194 56.7043C99.5578 56.7043 99.8719 56.6387 100.162 56.5075C100.452 56.3763 100.694 56.1726 100.887 55.8964L101.27 56.176C101.049 56.5075 100.759 56.756 100.4 56.9218C100.048 57.0875 99.6544 57.1703 99.2194 57.1703ZM98.8259 59.3765C98.667 59.3765 98.5186 59.3557 98.3805 59.3143C98.2493 59.2729 98.125 59.2073 98.0076 59.1175L98.1526 58.8275C98.2493 58.8966 98.3529 58.9484 98.4633 58.9829C98.5807 59.0243 98.7016 59.045 98.8259 59.045C99.033 59.045 99.1987 58.9967 99.323 58.9C99.4473 58.8033 99.5094 58.6687 99.5094 58.4961C99.5094 58.3442 99.4507 58.2164 99.3334 58.1129C99.216 58.0162 99.0468 57.9679 98.8259 57.9679H98.6187L98.8569 57.0668H99.1987L99.033 57.6882C99.3092 57.702 99.5232 57.7849 99.6752 57.9368C99.834 58.0887 99.9134 58.282 99.9134 58.5168C99.9134 58.7792 99.8098 58.9863 99.6027 59.1382C99.4024 59.297 99.1435 59.3765 98.8259 59.3765ZM106.228 57.1289V55.8964L106.207 55.7099V53.6799C106.207 53.1758 106.069 52.7926 105.793 52.5302C105.524 52.2678 105.127 52.1367 104.602 52.1367C104.229 52.1367 103.88 52.2023 103.556 52.3334C103.238 52.4577 102.966 52.62 102.738 52.8202L102.479 52.4474C102.748 52.2057 103.073 52.0193 103.452 51.8881C103.832 51.75 104.229 51.6809 104.643 51.6809C105.313 51.6809 105.828 51.8501 106.187 52.1884C106.546 52.5268 106.725 53.0308 106.725 53.7006V57.1289H106.228ZM104.281 57.1703C103.88 57.1703 103.532 57.1082 103.235 56.9839C102.945 56.8527 102.72 56.6697 102.562 56.435C102.41 56.2002 102.334 55.9309 102.334 55.6271C102.334 55.3509 102.396 55.1023 102.52 54.8814C102.651 54.6535 102.865 54.4705 103.162 54.3324C103.459 54.1874 103.856 54.1149 104.353 54.1149H106.342V54.5189H104.364C103.805 54.5189 103.411 54.6224 103.183 54.8296C102.962 55.0367 102.852 55.2957 102.852 55.6064C102.852 55.9516 102.983 56.2278 103.245 56.435C103.508 56.6421 103.877 56.7457 104.353 56.7457C104.809 56.7457 105.192 56.6421 105.503 56.435C105.821 56.2278 106.056 55.9275 106.207 55.5339L106.352 55.886C106.207 56.2796 105.959 56.5938 105.607 56.8285C105.261 57.0564 104.82 57.1703 104.281 57.1703ZM105.306 50.7591C105.154 50.7591 105.016 50.7246 104.892 50.6556C104.775 50.5796 104.668 50.4967 104.571 50.407C104.474 50.3103 104.378 50.2274 104.281 50.1584C104.184 50.0824 104.081 50.0445 103.97 50.0445C103.811 50.0445 103.684 50.1066 103.587 50.2309C103.49 50.3483 103.435 50.5105 103.421 50.7177H103.079C103.093 50.407 103.176 50.1584 103.328 49.972C103.487 49.7786 103.691 49.682 103.939 49.682C104.091 49.682 104.226 49.7199 104.343 49.7959C104.467 49.8649 104.578 49.9478 104.675 50.0445C104.778 50.1342 104.875 50.2171 104.965 50.293C105.061 50.3621 105.165 50.3966 105.275 50.3966C105.434 50.3966 105.562 50.3379 105.658 50.2205C105.762 50.0963 105.817 49.9374 105.824 49.7441H106.166C106.159 50.041 106.076 50.2861 105.917 50.4795C105.759 50.6659 105.555 50.7591 105.306 50.7591ZM110.972 57.1703C110.454 57.1703 109.991 57.053 109.584 56.8182C109.184 56.5834 108.862 56.2589 108.621 55.8446C108.386 55.4303 108.269 54.9573 108.269 54.4256C108.269 53.8871 108.386 53.4141 108.621 53.0067C108.862 52.5924 109.184 52.2678 109.584 52.0331C109.991 51.7983 110.454 51.6809 110.972 51.6809C111.49 51.6809 111.952 51.7983 112.36 52.0331C112.767 52.2678 113.088 52.5924 113.323 53.0067C113.558 53.4141 113.675 53.8871 113.675 54.4256C113.675 54.9573 113.558 55.4303 113.323 55.8446C113.088 56.2589 112.767 56.5834 112.36 56.8182C111.952 57.053 111.49 57.1703 110.972 57.1703ZM110.972 56.7043C111.386 56.7043 111.759 56.611 112.09 56.4246C112.422 56.2313 112.681 55.962 112.867 55.6167C113.054 55.2715 113.147 54.8745 113.147 54.4256C113.147 53.9699 113.054 53.5729 112.867 53.2345C112.681 52.8893 112.422 52.6235 112.09 52.437C111.759 52.2437 111.386 52.147 110.972 52.147C110.558 52.147 110.185 52.2437 109.853 52.437C109.529 52.6235 109.27 52.8893 109.076 53.2345C108.89 53.5729 108.797 53.9699 108.797 54.4256C108.797 54.8745 108.89 55.2715 109.076 55.6167C109.27 55.962 109.529 56.2313 109.853 56.4246C110.185 56.611 110.558 56.7043 110.972 56.7043ZM118.108 57.1289V49.8787H120.707C121.315 49.8787 121.836 49.9754 122.271 50.1688C122.706 50.3621 123.041 50.6417 123.276 51.0077C123.511 51.3668 123.628 51.8052 123.628 52.3231C123.628 52.8271 123.511 53.2622 123.276 53.6281C123.041 53.9941 122.706 54.2737 122.271 54.4671C121.836 54.6604 121.315 54.7571 120.707 54.7571H118.398L118.636 54.5085V57.1289H118.108ZM118.636 54.5396L118.398 54.2806H120.707C121.488 54.2806 122.078 54.1115 122.478 53.7731C122.886 53.4279 123.09 52.9445 123.09 52.3231C123.09 51.6947 122.886 51.2114 122.478 50.8731C122.078 50.5278 121.488 50.3552 120.707 50.3552H118.398L118.636 50.0963V54.5396ZM125.073 57.1289V51.7224H125.57V53.2035L125.518 53.0377C125.67 52.6027 125.925 52.2678 126.285 52.0331C126.644 51.7983 127.092 51.6809 127.631 51.6809V52.1884C127.61 52.1884 127.59 52.1884 127.569 52.1884C127.548 52.1815 127.527 52.1781 127.507 52.1781C126.906 52.1781 126.436 52.368 126.098 52.7477C125.76 53.1206 125.591 53.6419 125.591 54.3117V57.1289H125.073ZM131.12 57.1703C130.602 57.1703 130.14 57.053 129.732 56.8182C129.332 56.5834 129.011 56.2589 128.769 55.8446C128.534 55.4303 128.417 54.9573 128.417 54.4256C128.417 53.8871 128.534 53.4141 128.769 53.0067C129.011 52.5924 129.332 52.2678 129.732 52.0331C130.14 51.7983 130.602 51.6809 131.12 51.6809C131.638 51.6809 132.101 51.7983 132.508 52.0331C132.915 52.2678 133.237 52.5924 133.471 53.0067C133.706 53.4141 133.823 53.8871 133.823 54.4256C133.823 54.9573 133.706 55.4303 133.471 55.8446C133.237 56.2589 132.915 56.5834 132.508 56.8182C132.101 57.053 131.638 57.1703 131.12 57.1703ZM131.12 56.7043C131.534 56.7043 131.907 56.611 132.239 56.4246C132.57 56.2313 132.829 55.962 133.016 55.6167C133.202 55.2715 133.295 54.8745 133.295 54.4256C133.295 53.9699 133.202 53.5729 133.016 53.2345C132.829 52.8893 132.57 52.6235 132.239 52.437C131.907 52.2437 131.534 52.147 131.12 52.147C130.706 52.147 130.333 52.2437 130.002 52.437C129.677 52.6235 129.418 52.8893 129.225 53.2345C129.038 53.5729 128.945 53.9699 128.945 54.4256C128.945 54.8745 129.038 55.2715 129.225 55.6167C129.418 55.962 129.677 56.2313 130.002 56.4246C130.333 56.611 130.706 56.7043 131.12 56.7043ZM135.534 57.1289V50.8938C135.534 50.445 135.661 50.0859 135.917 49.8166C136.179 49.5404 136.552 49.4023 137.035 49.4023C137.236 49.4023 137.433 49.4334 137.626 49.4955C137.819 49.5508 137.978 49.6371 138.102 49.7545L137.895 50.148C137.792 50.0445 137.667 49.9685 137.522 49.9202C137.377 49.8718 137.222 49.8477 137.056 49.8477C136.725 49.8477 136.473 49.9409 136.3 50.1273C136.127 50.3069 136.041 50.5761 136.041 50.9352V51.8466L136.052 52.0952V57.1289H135.534ZM134.539 52.1677V51.7224H137.771V52.1677H134.539ZM138.827 57.1289V51.7224H139.345V57.1289H138.827ZM139.086 50.407C138.969 50.407 138.869 50.3655 138.786 50.2827C138.703 50.1998 138.662 50.1032 138.662 49.9927C138.662 49.8753 138.703 49.7752 138.786 49.6923C138.869 49.6095 138.969 49.568 139.086 49.568C139.211 49.568 139.311 49.6095 139.387 49.6923C139.469 49.7683 139.511 49.8649 139.511 49.9823C139.511 50.0997 139.469 50.1998 139.387 50.2827C139.311 50.3655 139.211 50.407 139.086 50.407ZM142.896 57.1703C142.448 57.1703 142.026 57.1047 141.633 56.9735C141.246 56.8424 140.946 56.6766 140.732 56.4764L140.97 56.0621C141.177 56.2416 141.453 56.397 141.798 56.5282C142.144 56.6525 142.517 56.7146 142.917 56.7146C143.483 56.7146 143.891 56.6214 144.139 56.435C144.388 56.2485 144.512 56.0034 144.512 55.6996C144.512 55.4786 144.447 55.306 144.315 55.1817C144.191 55.0505 144.022 54.9504 143.808 54.8814C143.594 54.8123 143.359 54.7571 143.104 54.7156C142.848 54.6673 142.593 54.6155 142.337 54.5603C142.082 54.505 141.847 54.4256 141.633 54.3221C141.419 54.2185 141.246 54.0769 141.115 53.8974C140.991 53.711 140.928 53.4659 140.928 53.162C140.928 52.8858 141.004 52.6373 141.156 52.4163C141.308 52.1953 141.536 52.0193 141.84 51.8881C142.144 51.75 142.524 51.6809 142.979 51.6809C143.318 51.6809 143.656 51.7293 143.994 51.8259C144.339 51.9226 144.619 52.0503 144.833 52.2092L144.595 52.6235C144.367 52.4508 144.112 52.3265 143.829 52.2506C143.545 52.1746 143.259 52.1367 142.969 52.1367C142.444 52.1367 142.057 52.2333 141.809 52.4267C141.567 52.62 141.446 52.8617 141.446 53.1517C141.446 53.3795 141.508 53.5625 141.633 53.7006C141.764 53.8318 141.937 53.9354 142.151 54.0113C142.365 54.0804 142.599 54.1391 142.855 54.1874C143.11 54.2288 143.366 54.2772 143.621 54.3324C143.877 54.3877 144.112 54.4671 144.326 54.5706C144.54 54.6673 144.709 54.8054 144.833 54.9849C144.964 55.1576 145.03 55.3923 145.03 55.6892C145.03 55.9861 144.947 56.2451 144.781 56.466C144.623 56.687 144.384 56.8596 144.067 56.9839C143.749 57.1082 143.359 57.1703 142.896 57.1703ZM147.842 57.1703C147.394 57.1703 146.972 57.1047 146.579 56.9735C146.192 56.8424 145.892 56.6766 145.678 56.4764L145.916 56.0621C146.123 56.2416 146.399 56.397 146.745 56.5282C147.09 56.6525 147.463 56.7146 147.863 56.7146C148.429 56.7146 148.837 56.6214 149.085 56.435C149.334 56.2485 149.458 56.0034 149.458 55.6996C149.458 55.4786 149.393 55.306 149.261 55.1817C149.137 55.0505 148.968 54.9504 148.754 54.8814C148.54 54.8123 148.305 54.7571 148.05 54.7156C147.794 54.6673 147.539 54.6155 147.283 54.5603C147.028 54.505 146.793 54.4256 146.579 54.3221C146.365 54.2185 146.192 54.0769 146.061 53.8974C145.937 53.711 145.875 53.4659 145.875 53.162C145.875 52.8858 145.95 52.6373 146.102 52.4163C146.254 52.1953 146.482 52.0193 146.786 51.8881C147.09 51.75 147.47 51.6809 147.925 51.6809C148.264 51.6809 148.602 51.7293 148.94 51.8259C149.286 51.9226 149.565 52.0503 149.779 52.2092L149.541 52.6235C149.313 52.4508 149.058 52.3265 148.775 52.2506C148.491 52.1746 148.205 52.1367 147.915 52.1367C147.39 52.1367 147.003 52.2333 146.755 52.4267C146.513 52.62 146.392 52.8617 146.392 53.1517C146.392 53.3795 146.455 53.5625 146.579 53.7006C146.71 53.8318 146.883 53.9354 147.097 54.0113C147.311 54.0804 147.546 54.1391 147.801 54.1874C148.056 54.2288 148.312 54.2772 148.567 54.3324C148.823 54.3877 149.058 54.4671 149.272 54.5706C149.486 54.6673 149.655 54.8054 149.779 54.9849C149.91 55.1576 149.976 55.3923 149.976 55.6892C149.976 55.9861 149.893 56.2451 149.727 56.466C149.569 56.687 149.33 56.8596 149.013 56.9839C148.695 57.1082 148.305 57.1703 147.842 57.1703ZM151.421 57.1289V51.7224H151.939V57.1289H151.421ZM151.68 50.407C151.563 50.407 151.463 50.3655 151.38 50.2827C151.297 50.1998 151.256 50.1032 151.256 49.9927C151.256 49.8753 151.297 49.7752 151.38 49.6923C151.463 49.6095 151.563 49.568 151.68 49.568C151.805 49.568 151.905 49.6095 151.981 49.6923C152.063 49.7683 152.105 49.8649 152.105 49.9823C152.105 50.0997 152.063 50.1998 151.981 50.2827C151.905 50.3655 151.805 50.407 151.68 50.407ZM156.235 57.1703C155.717 57.1703 155.254 57.053 154.847 56.8182C154.446 56.5834 154.125 56.2589 153.884 55.8446C153.649 55.4303 153.532 54.9573 153.532 54.4256C153.532 53.8871 153.649 53.4141 153.884 53.0067C154.125 52.5924 154.446 52.2678 154.847 52.0331C155.254 51.7983 155.717 51.6809 156.235 51.6809C156.753 51.6809 157.215 51.7983 157.623 52.0331C158.03 52.2678 158.351 52.5924 158.586 53.0067C158.821 53.4141 158.938 53.8871 158.938 54.4256C158.938 54.9573 158.821 55.4303 158.586 55.8446C158.351 56.2589 158.03 56.5834 157.623 56.8182C157.215 57.053 156.753 57.1703 156.235 57.1703ZM156.235 56.7043C156.649 56.7043 157.022 56.611 157.353 56.4246C157.685 56.2313 157.944 55.962 158.13 55.6167C158.317 55.2715 158.41 54.8745 158.41 54.4256C158.41 53.9699 158.317 53.5729 158.13 53.2345C157.944 52.8893 157.685 52.6235 157.353 52.437C157.022 52.2437 156.649 52.147 156.235 52.147C155.82 52.147 155.448 52.2437 155.116 52.437C154.792 52.6235 154.533 52.8893 154.339 53.2345C154.153 53.5729 154.06 53.9699 154.06 54.4256C154.06 54.8745 154.153 55.2715 154.339 55.6167C154.533 55.962 154.792 56.2313 155.116 56.4246C155.448 56.611 155.82 56.7043 156.235 56.7043ZM163.186 51.6809C163.628 51.6809 164.011 51.7672 164.335 51.9399C164.667 52.1056 164.922 52.3611 165.102 52.7063C165.288 53.0447 165.382 53.4659 165.382 53.9699V57.1289H164.864V54.0113C164.864 53.4037 164.708 52.9411 164.398 52.6235C164.094 52.3058 163.666 52.147 163.113 52.147C162.692 52.147 162.326 52.2333 162.015 52.4059C161.705 52.5786 161.466 52.8202 161.301 53.131C161.142 53.4417 161.063 53.8145 161.063 54.2496V57.1289H160.545V51.7224H161.042V53.2242L160.969 53.0585C161.135 52.6304 161.408 52.2955 161.788 52.0538C162.167 51.8052 162.633 51.6809 163.186 51.6809ZM170.921 57.1289V55.8964L170.9 55.7099V53.6799C170.9 53.1758 170.762 52.7926 170.486 52.5302C170.217 52.2678 169.82 52.1367 169.295 52.1367C168.922 52.1367 168.574 52.2023 168.249 52.3334C167.931 52.4577 167.659 52.62 167.431 52.8202L167.172 52.4474C167.441 52.2057 167.766 52.0193 168.145 51.8881C168.525 51.75 168.922 51.6809 169.337 51.6809C170.006 51.6809 170.521 51.8501 170.88 52.1884C171.239 52.5268 171.418 53.0308 171.418 53.7006V57.1289H170.921ZM168.974 57.1703C168.574 57.1703 168.225 57.1082 167.928 56.9839C167.638 56.8527 167.414 56.6697 167.255 56.435C167.103 56.2002 167.027 55.9309 167.027 55.6271C167.027 55.3509 167.089 55.1023 167.213 54.8814C167.344 54.6535 167.559 54.4705 167.855 54.3324C168.152 54.1874 168.549 54.1149 169.047 54.1149H171.035V54.5189H169.057C168.498 54.5189 168.104 54.6224 167.876 54.8296C167.655 55.0367 167.545 55.2957 167.545 55.6064C167.545 55.9516 167.676 56.2278 167.938 56.435C168.201 56.6421 168.57 56.7457 169.047 56.7457C169.502 56.7457 169.885 56.6421 170.196 56.435C170.514 56.2278 170.749 55.9275 170.9 55.5339L171.045 55.886C170.9 56.2796 170.652 56.5938 170.3 56.8285C169.955 57.0564 169.513 57.1703 168.974 57.1703ZM173.552 57.1289V49.4437H174.07V57.1289H173.552Z" fill="white"/>
</svg>