<svg xmlns="http://www.w3.org/2000/svg" width="198" height="67" viewBox="0 0 198 67" fill="none">
<rect x="0.414062" y="4" width="28.2174" height="28.2174" fill="#FAFAFA"/>
<rect x="31.1953" y="4" width="28.2174" height="28.2174" fill="#FAFAFA"/>
<rect x="0.414062" y="34.7832" width="28.2174" height="28.2174" fill="#FAFAFA"/>
<rect x="31.1953" y="34.7832" width="28.2174" height="28.2174" fill="#FAFAFA"/>
<path d="M77.0959 15V3.36364H83.5732V4.02273H77.8061V8.84659H83.2266V9.50568H77.8061V14.3409H83.7095V15H77.0959ZM91.8189 8.15341L91.1768 8.32386C91.0746 8.00568 90.9287 7.73106 90.7393 7.5C90.55 7.26894 90.3113 7.09091 90.0234 6.96591C89.7393 6.83712 89.3984 6.77273 89.0007 6.77273C88.3606 6.77273 87.8359 6.93182 87.4268 7.25C87.0215 7.56818 86.8189 7.98295 86.8189 8.49432C86.8189 8.91098 86.9571 9.25568 87.2337 9.52841C87.5102 9.79735 87.9325 10.0019 88.5007 10.142L89.8416 10.4773C90.531 10.6477 91.05 10.9242 91.3984 11.3068C91.7469 11.6856 91.9212 12.1572 91.9212 12.7216C91.9212 13.2027 91.7905 13.6288 91.5291 14C91.2678 14.3712 90.906 14.661 90.4439 14.8693C89.9856 15.0777 89.4515 15.1818 88.8416 15.1818C88.0272 15.1818 87.3587 14.9924 86.8359 14.6136C86.3132 14.2311 85.978 13.6837 85.8303 12.9716L86.495 12.8011C86.62 13.3693 86.8795 13.803 87.2734 14.1023C87.6712 14.3977 88.192 14.5455 88.8359 14.5455C89.5481 14.5455 90.1219 14.3769 90.5575 14.0398C90.9969 13.7027 91.2166 13.2708 91.2166 12.7443C91.2166 12.3428 91.0878 12.0038 90.8303 11.7273C90.5727 11.4508 90.1825 11.2481 89.6598 11.1193L88.2678 10.7784C87.5556 10.6042 87.0215 10.3258 86.6655 9.94318C86.3094 9.55682 86.1314 9.08144 86.1314 8.51705C86.1314 8.04735 86.2545 7.63447 86.5007 7.27841C86.7469 6.92235 87.0859 6.64394 87.5178 6.44318C87.9496 6.24242 88.4439 6.14205 89.0007 6.14205C89.7393 6.14205 90.3416 6.31629 90.8075 6.66477C91.2734 7.01326 91.6106 7.50947 91.8189 8.15341ZM97.593 15.1818C96.8506 15.1818 96.1972 14.9867 95.6328 14.5966C95.0684 14.2027 94.6271 13.6648 94.3089 12.983C93.9946 12.3011 93.8374 11.5284 93.8374 10.6648C93.8374 9.80114 93.9964 9.02841 94.3146 8.34659C94.6328 7.66477 95.0741 7.12689 95.6385 6.73295C96.2029 6.33901 96.8525 6.14205 97.5874 6.14205C98.1404 6.14205 98.6442 6.25568 99.0987 6.48295C99.5571 6.71023 99.9358 7.02651 100.235 7.43182C100.538 7.83712 100.731 8.30682 100.815 8.84091H100.11C99.9964 8.25 99.7124 7.76136 99.2578 7.375C98.8071 6.98485 98.2521 6.78977 97.593 6.78977C97.0021 6.78977 96.4756 6.95644 96.0135 7.28977C95.5514 7.61932 95.1877 8.07576 94.9226 8.65909C94.6574 9.23864 94.5249 9.90341 94.5249 10.6534C94.5249 11.392 94.6536 12.0549 94.9112 12.642C95.1688 13.2254 95.5286 13.6875 95.9908 14.0284C96.4529 14.3693 96.987 14.5398 97.593 14.5398C98.0211 14.5398 98.4112 14.4545 98.7635 14.2841C99.1196 14.1136 99.4169 13.8712 99.6555 13.5568C99.8942 13.2424 100.051 12.875 100.127 12.4545H100.832C100.748 12.9924 100.559 13.4659 100.263 13.875C99.968 14.2841 99.5911 14.6042 99.1328 14.8352C98.6745 15.0663 98.1612 15.1818 97.593 15.1818ZM106.44 15.1818C105.72 15.1818 105.08 14.9886 104.519 14.6023C103.959 14.2121 103.517 13.6761 103.195 12.9943C102.873 12.3125 102.712 11.536 102.712 10.6648C102.712 9.78977 102.873 9.01326 103.195 8.33523C103.517 7.65341 103.959 7.11742 104.519 6.72727C105.08 6.33712 105.72 6.14205 106.44 6.14205C107.159 6.14205 107.799 6.33712 108.36 6.72727C108.921 7.11742 109.362 7.65341 109.684 8.33523C110.006 9.01705 110.167 9.79356 110.167 10.6648C110.167 11.536 110.006 12.3125 109.684 12.9943C109.362 13.6761 108.921 14.2121 108.36 14.6023C107.799 14.9886 107.159 15.1818 106.44 15.1818ZM106.44 14.5398C107.049 14.5398 107.582 14.3674 108.036 14.0227C108.495 13.678 108.849 13.2121 109.099 12.625C109.353 12.0379 109.479 11.3845 109.479 10.6648C109.479 9.94508 109.353 9.29356 109.099 8.71023C108.845 8.12311 108.491 7.6572 108.036 7.3125C107.582 6.96401 107.049 6.78977 106.44 6.78977C105.83 6.78977 105.298 6.96401 104.843 7.3125C104.388 7.6572 104.034 8.12311 103.781 8.71023C103.527 9.29356 103.4 9.94508 103.4 10.6648C103.4 11.3845 103.525 12.0379 103.775 12.625C104.029 13.2121 104.383 13.678 104.837 14.0227C105.296 14.3674 105.83 14.5398 106.44 14.5398ZM113.248 3.36364V15H112.555V3.36364H113.248ZM118.43 15.1875C117.926 15.1875 117.464 15.0871 117.043 14.8864C116.627 14.6856 116.291 14.392 116.038 14.0057C115.788 13.6193 115.663 13.1496 115.663 12.5966C115.663 12.233 115.727 11.9129 115.856 11.6364C115.985 11.3598 116.183 11.1212 116.452 10.9205C116.721 10.7197 117.066 10.5549 117.487 10.4261C117.907 10.2936 118.409 10.1913 118.992 10.1193C119.435 10.0663 119.831 10.0152 120.18 9.96591C120.528 9.91288 120.801 9.83144 120.998 9.72159C121.199 9.61174 121.299 9.44508 121.299 9.22159V8.85795C121.299 8.22159 121.098 7.71591 120.697 7.34091C120.295 6.96591 119.742 6.77841 119.038 6.77841C118.413 6.77841 117.886 6.91667 117.458 7.19318C117.034 7.46591 116.737 7.81818 116.566 8.25L115.913 8.00568C116.079 7.58901 116.32 7.24242 116.634 6.96591C116.952 6.68939 117.316 6.48295 117.725 6.34659C118.138 6.21023 118.57 6.14205 119.021 6.14205C119.411 6.14205 119.782 6.19697 120.134 6.30682C120.49 6.41667 120.807 6.58333 121.083 6.80682C121.363 7.0303 121.585 7.31629 121.748 7.66477C121.911 8.00947 121.992 8.42235 121.992 8.90341V15H121.299V13.4261H121.248C121.096 13.7519 120.888 14.0492 120.623 14.3182C120.362 14.5833 120.045 14.7955 119.674 14.9545C119.307 15.1098 118.892 15.1875 118.43 15.1875ZM118.498 14.5455C119.043 14.5455 119.526 14.4129 119.947 14.1477C120.371 13.8788 120.702 13.5114 120.941 13.0455C121.18 12.5795 121.299 12.0511 121.299 11.4602V10.1761C121.212 10.2519 121.085 10.3201 120.918 10.3807C120.755 10.4375 120.57 10.4886 120.362 10.5341C120.157 10.5758 119.941 10.6136 119.714 10.6477C119.49 10.678 119.272 10.7064 119.06 10.733C118.424 10.8087 117.905 10.9261 117.504 11.0852C117.106 11.2405 116.814 11.4451 116.629 11.6989C116.447 11.9527 116.356 12.2595 116.356 12.6193C116.356 13.214 116.56 13.6837 116.969 14.0284C117.379 14.3731 117.888 14.5455 118.498 14.5455Z" fill="white"/>
<path d="M78.1094 25.9375H80.3008L85.8906 39.8477L91.4688 25.9375H93.6719L86.7344 43H85.0234L78.1094 25.9375ZM77.3945 25.9375H79.3281L79.6445 36.3438V43H77.3945V25.9375ZM92.4414 25.9375H94.375V43H92.125V36.3438L92.4414 25.9375ZM100.375 30.3203V43H98.1953V30.3203H100.375ZM98.0312 26.957C98.0312 26.6055 98.1367 26.3086 98.3477 26.0664C98.5664 25.8242 98.8867 25.7031 99.3086 25.7031C99.7227 25.7031 100.039 25.8242 100.258 26.0664C100.484 26.3086 100.598 26.6055 100.598 26.957C100.598 27.293 100.484 27.582 100.258 27.8242C100.039 28.0586 99.7227 28.1758 99.3086 28.1758C98.8867 28.1758 98.5664 28.0586 98.3477 27.8242C98.1367 27.582 98.0312 27.293 98.0312 26.957ZM108.93 41.4531C109.445 41.4531 109.922 41.3477 110.359 41.1367C110.797 40.9258 111.156 40.6367 111.438 40.2695C111.719 39.8945 111.879 39.4688 111.918 38.9922H113.98C113.941 39.7422 113.688 40.4414 113.219 41.0898C112.758 41.7305 112.152 42.25 111.402 42.6484C110.652 43.0391 109.828 43.2344 108.93 43.2344C107.977 43.2344 107.145 43.0664 106.434 42.7305C105.73 42.3945 105.145 41.9336 104.676 41.3477C104.215 40.7617 103.867 40.0898 103.633 39.332C103.406 38.5664 103.293 37.7578 103.293 36.9062V36.4141C103.293 35.5625 103.406 34.7578 103.633 34C103.867 33.2344 104.215 32.5586 104.676 31.9727C105.145 31.3867 105.73 30.9258 106.434 30.5898C107.145 30.2539 107.977 30.0859 108.93 30.0859C109.922 30.0859 110.789 30.2891 111.531 30.6953C112.273 31.0938 112.855 31.6406 113.277 32.3359C113.707 33.0234 113.941 33.8047 113.98 34.6797H111.918C111.879 34.1562 111.73 33.6836 111.473 33.2617C111.223 32.8398 110.879 32.5039 110.441 32.2539C110.012 31.9961 109.508 31.8672 108.93 31.8672C108.266 31.8672 107.707 32 107.254 32.2656C106.809 32.5234 106.453 32.875 106.188 33.3203C105.93 33.7578 105.742 34.2461 105.625 34.7852C105.516 35.3164 105.461 35.8594 105.461 36.4141V36.9062C105.461 37.4609 105.516 38.0078 105.625 38.5469C105.734 39.0859 105.918 39.5742 106.176 40.0117C106.441 40.4492 106.797 40.8008 107.242 41.0664C107.695 41.3242 108.258 41.4531 108.93 41.4531ZM118.586 32.3125V43H116.418V30.3203H118.527L118.586 32.3125ZM122.547 30.25L122.535 32.2656C122.355 32.2266 122.184 32.2031 122.02 32.1953C121.863 32.1797 121.684 32.1719 121.48 32.1719C120.98 32.1719 120.539 32.25 120.156 32.4062C119.773 32.5625 119.449 32.7812 119.184 33.0625C118.918 33.3438 118.707 33.6797 118.551 34.0703C118.402 34.4531 118.305 34.875 118.258 35.3359L117.648 35.6875C117.648 34.9219 117.723 34.2031 117.871 33.5312C118.027 32.8594 118.266 32.2656 118.586 31.75C118.906 31.2266 119.312 30.8203 119.805 30.5312C120.305 30.2344 120.898 30.0859 121.586 30.0859C121.742 30.0859 121.922 30.1055 122.125 30.1445C122.328 30.1758 122.469 30.2109 122.547 30.25ZM123.742 36.8008V36.5312C123.742 35.6172 123.875 34.7695 124.141 33.9883C124.406 33.1992 124.789 32.5156 125.289 31.9375C125.789 31.3516 126.395 30.8984 127.105 30.5781C127.816 30.25 128.613 30.0859 129.496 30.0859C130.387 30.0859 131.188 30.25 131.898 30.5781C132.617 30.8984 133.227 31.3516 133.727 31.9375C134.234 32.5156 134.621 33.1992 134.887 33.9883C135.152 34.7695 135.285 35.6172 135.285 36.5312V36.8008C135.285 37.7148 135.152 38.5625 134.887 39.3438C134.621 40.125 134.234 40.8086 133.727 41.3945C133.227 41.9727 132.621 42.4258 131.91 42.7539C131.207 43.0742 130.41 43.2344 129.52 43.2344C128.629 43.2344 127.828 43.0742 127.117 42.7539C126.406 42.4258 125.797 41.9727 125.289 41.3945C124.789 40.8086 124.406 40.125 124.141 39.3438C123.875 38.5625 123.742 37.7148 123.742 36.8008ZM125.91 36.5312V36.8008C125.91 37.4336 125.984 38.0312 126.133 38.5938C126.281 39.1484 126.504 39.6406 126.801 40.0703C127.105 40.5 127.484 40.8398 127.938 41.0898C128.391 41.332 128.918 41.4531 129.52 41.4531C130.113 41.4531 130.633 41.332 131.078 41.0898C131.531 40.8398 131.906 40.5 132.203 40.0703C132.5 39.6406 132.723 39.1484 132.871 38.5938C133.027 38.0312 133.105 37.4336 133.105 36.8008V36.5312C133.105 35.9062 133.027 35.3164 132.871 34.7617C132.723 34.1992 132.496 33.7031 132.191 33.2734C131.895 32.8359 131.52 32.4922 131.066 32.2422C130.621 31.9922 130.098 31.8672 129.496 31.8672C128.902 31.8672 128.379 31.9922 127.926 32.2422C127.48 32.4922 127.105 32.8359 126.801 33.2734C126.504 33.7031 126.281 34.1992 126.133 34.7617C125.984 35.3164 125.91 35.9062 125.91 36.5312ZM145.387 39.6367C145.387 39.3242 145.316 39.0352 145.176 38.7695C145.043 38.4961 144.766 38.25 144.344 38.0312C143.93 37.8047 143.305 37.6094 142.469 37.4453C141.766 37.2969 141.129 37.1211 140.559 36.918C139.996 36.7148 139.516 36.4688 139.117 36.1797C138.727 35.8906 138.426 35.5508 138.215 35.1602C138.004 34.7695 137.898 34.3125 137.898 33.7891C137.898 33.2891 138.008 32.8164 138.227 32.3711C138.453 31.9258 138.77 31.5312 139.176 31.1875C139.59 30.8438 140.086 30.5742 140.664 30.3789C141.242 30.1836 141.887 30.0859 142.598 30.0859C143.613 30.0859 144.48 30.2656 145.199 30.625C145.918 30.9844 146.469 31.4648 146.852 32.0664C147.234 32.6602 147.426 33.3203 147.426 34.0469H145.258C145.258 33.6953 145.152 33.3555 144.941 33.0273C144.738 32.6914 144.438 32.4141 144.039 32.1953C143.648 31.9766 143.168 31.8672 142.598 31.8672C141.996 31.8672 141.508 31.9609 141.133 32.1484C140.766 32.3281 140.496 32.5586 140.324 32.8398C140.16 33.1211 140.078 33.418 140.078 33.7305C140.078 33.9648 140.117 34.1758 140.195 34.3633C140.281 34.543 140.43 34.7109 140.641 34.8672C140.852 35.0156 141.148 35.1562 141.531 35.2891C141.914 35.4219 142.402 35.5547 142.996 35.6875C144.035 35.9219 144.891 36.2031 145.562 36.5312C146.234 36.8594 146.734 37.2617 147.062 37.7383C147.391 38.2148 147.555 38.793 147.555 39.4727C147.555 40.0273 147.438 40.5352 147.203 40.9961C146.977 41.457 146.645 41.8555 146.207 42.1914C145.777 42.5195 145.262 42.7773 144.66 42.9648C144.066 43.1445 143.398 43.2344 142.656 43.2344C141.539 43.2344 140.594 43.0352 139.82 42.6367C139.047 42.2383 138.461 41.7227 138.062 41.0898C137.664 40.457 137.465 39.7891 137.465 39.0859H139.645C139.676 39.6797 139.848 40.1523 140.16 40.5039C140.473 40.8477 140.855 41.0938 141.309 41.2422C141.762 41.3828 142.211 41.4531 142.656 41.4531C143.25 41.4531 143.746 41.375 144.145 41.2188C144.551 41.0625 144.859 40.8477 145.07 40.5742C145.281 40.3008 145.387 39.9883 145.387 39.6367ZM149.828 36.8008V36.5312C149.828 35.6172 149.961 34.7695 150.227 33.9883C150.492 33.1992 150.875 32.5156 151.375 31.9375C151.875 31.3516 152.48 30.8984 153.191 30.5781C153.902 30.25 154.699 30.0859 155.582 30.0859C156.473 30.0859 157.273 30.25 157.984 30.5781C158.703 30.8984 159.312 31.3516 159.812 31.9375C160.32 32.5156 160.707 33.1992 160.973 33.9883C161.238 34.7695 161.371 35.6172 161.371 36.5312V36.8008C161.371 37.7148 161.238 38.5625 160.973 39.3438C160.707 40.125 160.32 40.8086 159.812 41.3945C159.312 41.9727 158.707 42.4258 157.996 42.7539C157.293 43.0742 156.496 43.2344 155.605 43.2344C154.715 43.2344 153.914 43.0742 153.203 42.7539C152.492 42.4258 151.883 41.9727 151.375 41.3945C150.875 40.8086 150.492 40.125 150.227 39.3438C149.961 38.5625 149.828 37.7148 149.828 36.8008ZM151.996 36.5312V36.8008C151.996 37.4336 152.07 38.0312 152.219 38.5938C152.367 39.1484 152.59 39.6406 152.887 40.0703C153.191 40.5 153.57 40.8398 154.023 41.0898C154.477 41.332 155.004 41.4531 155.605 41.4531C156.199 41.4531 156.719 41.332 157.164 41.0898C157.617 40.8398 157.992 40.5 158.289 40.0703C158.586 39.6406 158.809 39.1484 158.957 38.5938C159.113 38.0312 159.191 37.4336 159.191 36.8008V36.5312C159.191 35.9062 159.113 35.3164 158.957 34.7617C158.809 34.1992 158.582 33.7031 158.277 33.2734C157.98 32.8359 157.605 32.4922 157.152 32.2422C156.707 31.9922 156.184 31.8672 155.582 31.8672C154.988 31.8672 154.465 31.9922 154.012 32.2422C153.566 32.4922 153.191 32.8359 152.887 33.2734C152.59 33.7031 152.367 34.1992 152.219 34.7617C152.07 35.3164 151.996 35.9062 151.996 36.5312ZM167.324 43H165.156V28.9844C165.156 28.0703 165.32 27.3008 165.648 26.6758C165.984 26.043 166.465 25.5664 167.09 25.2461C167.715 24.918 168.457 24.7539 169.316 24.7539C169.566 24.7539 169.816 24.7695 170.066 24.8008C170.324 24.832 170.574 24.8789 170.816 24.9414L170.699 26.7109C170.535 26.6719 170.348 26.6445 170.137 26.6289C169.934 26.6133 169.73 26.6055 169.527 26.6055C169.066 26.6055 168.668 26.6992 168.332 26.8867C168.004 27.0664 167.754 27.332 167.582 27.6836C167.41 28.0352 167.324 28.4688 167.324 28.9844V43ZM170.02 30.3203V31.9844H163.152V30.3203H170.02ZM177.742 30.3203V31.9844H170.887V30.3203H177.742ZM173.207 27.2383H175.375V39.8594C175.375 40.2891 175.441 40.6133 175.574 40.832C175.707 41.0508 175.879 41.1953 176.09 41.2656C176.301 41.3359 176.527 41.3711 176.77 41.3711C176.949 41.3711 177.137 41.3555 177.332 41.3242C177.535 41.2852 177.688 41.2539 177.789 41.2305L177.801 43C177.629 43.0547 177.402 43.1055 177.121 43.1523C176.848 43.207 176.516 43.2344 176.125 43.2344C175.594 43.2344 175.105 43.1289 174.66 42.918C174.215 42.707 173.859 42.3555 173.594 41.8633C173.336 41.3633 173.207 40.6914 173.207 39.8477V27.2383Z" fill="white"/>
<path d="M82.9404 62.6396V64H77.6562V62.6396H82.9404ZM78.1416 54.0469V64H76.4258V54.0469H78.1416ZM82.25 58.2031V59.543H77.6562V58.2031H82.25ZM82.9062 54.0469V55.4141H77.6562V54.0469H82.9062ZM88.6527 62.4688V53.5H90.307V64H88.81L88.6527 62.4688ZM83.8402 60.3838V60.2402C83.8402 59.6797 83.9063 59.1693 84.0385 58.709C84.1706 58.2441 84.362 57.8454 84.6127 57.5127C84.8633 57.1755 85.1687 56.918 85.5287 56.7402C85.8887 56.5579 86.2943 56.4668 86.7455 56.4668C87.1921 56.4668 87.584 56.5534 87.9213 56.7266C88.2585 56.8997 88.5456 57.1481 88.7826 57.4717C89.0196 57.7907 89.2087 58.1735 89.35 58.6201C89.4913 59.0622 89.5915 59.5544 89.6508 60.0967V60.5547C89.5915 61.0833 89.4913 61.5664 89.35 62.0039C89.2087 62.4414 89.0196 62.8197 88.7826 63.1387C88.5456 63.4577 88.2562 63.7038 87.9145 63.877C87.5772 64.0501 87.183 64.1367 86.7318 64.1367C86.2852 64.1367 85.8819 64.0433 85.5219 63.8564C85.1664 63.6696 84.8633 63.4076 84.6127 63.0703C84.362 62.7331 84.1706 62.3366 84.0385 61.8809C83.9063 61.4206 83.8402 60.9215 83.8402 60.3838ZM85.4877 60.2402V60.3838C85.4877 60.721 85.5173 61.0355 85.5766 61.3271C85.6404 61.6188 85.7383 61.8763 85.8705 62.0996C86.0027 62.3184 86.1736 62.4915 86.3832 62.6191C86.5974 62.7422 86.8526 62.8037 87.1488 62.8037C87.5225 62.8037 87.8301 62.7217 88.0717 62.5576C88.3132 62.3936 88.5023 62.1725 88.6391 61.8945C88.7803 61.612 88.876 61.2975 88.9262 60.9512V59.7139C88.8988 59.445 88.8419 59.1943 88.7553 58.9619C88.6732 58.7295 88.5616 58.5267 88.4203 58.3535C88.279 58.1758 88.1036 58.0391 87.8939 57.9434C87.6889 57.8431 87.4451 57.793 87.1625 57.793C86.8617 57.793 86.6065 57.8568 86.3969 57.9844C86.1872 58.112 86.0141 58.2874 85.8773 58.5107C85.7452 58.734 85.6472 58.9938 85.5834 59.29C85.5196 59.5863 85.4877 59.903 85.4877 60.2402ZM96.5799 62.2568V56.6035H98.2342V64H96.6756L96.5799 62.2568ZM96.8123 60.7188L97.366 60.7051C97.366 61.2018 97.3113 61.6598 97.202 62.0791C97.0926 62.4938 96.924 62.8561 96.6961 63.166C96.4682 63.4714 96.1766 63.7106 95.8211 63.8838C95.4656 64.0524 95.0395 64.1367 94.5428 64.1367C94.1827 64.1367 93.8523 64.0843 93.5516 63.9795C93.2508 63.8747 92.991 63.7129 92.7723 63.4941C92.5581 63.2754 92.3917 62.9906 92.2732 62.6396C92.1548 62.2887 92.0955 61.8695 92.0955 61.3818V56.6035H93.743V61.3955C93.743 61.6644 93.7749 61.89 93.8387 62.0723C93.9025 62.25 93.9891 62.3936 94.0984 62.5029C94.2078 62.6123 94.3354 62.6898 94.4812 62.7354C94.6271 62.7809 94.782 62.8037 94.9461 62.8037C95.4155 62.8037 95.7846 62.7126 96.0535 62.5303C96.327 62.3434 96.5206 62.0928 96.6346 61.7783C96.7531 61.4639 96.8123 61.1107 96.8123 60.7188ZM103.044 62.8242C103.313 62.8242 103.555 62.7718 103.769 62.667C103.987 62.5576 104.163 62.4072 104.295 62.2158C104.432 62.0244 104.507 61.8034 104.521 61.5527H106.072C106.063 62.0312 105.922 62.4665 105.649 62.8584C105.375 63.2503 105.013 63.5625 104.562 63.7949C104.111 64.0228 103.612 64.1367 103.065 64.1367C102.5 64.1367 102.007 64.041 101.588 63.8496C101.169 63.6536 100.82 63.3848 100.542 63.043C100.264 62.7012 100.055 62.307 99.9133 61.8604C99.7766 61.4137 99.7082 60.9352 99.7082 60.4248V60.1855C99.7082 59.6751 99.7766 59.1966 99.9133 58.75C100.055 58.2988 100.264 57.9023 100.542 57.5605C100.82 57.2188 101.169 56.9521 101.588 56.7607C102.007 56.5648 102.497 56.4668 103.058 56.4668C103.65 56.4668 104.17 56.5853 104.616 56.8223C105.063 57.0547 105.414 57.3805 105.669 57.7998C105.929 58.2145 106.063 58.6976 106.072 59.249H104.521C104.507 58.9756 104.439 58.7295 104.316 58.5107C104.197 58.2874 104.029 58.1097 103.81 57.9775C103.596 57.8454 103.338 57.7793 103.037 57.7793C102.705 57.7793 102.429 57.8477 102.21 57.9844C101.991 58.1165 101.821 58.2988 101.697 58.5312C101.574 58.7591 101.486 59.0166 101.431 59.3037C101.381 59.5863 101.356 59.8802 101.356 60.1855V60.4248C101.356 60.7301 101.381 61.0264 101.431 61.3135C101.481 61.6006 101.568 61.8581 101.691 62.0859C101.818 62.3092 101.991 62.4893 102.21 62.626C102.429 62.7581 102.707 62.8242 103.044 62.8242ZM111.607 62.5166V58.9893C111.607 58.7249 111.559 58.4971 111.463 58.3057C111.368 58.1143 111.222 57.9661 111.026 57.8613C110.835 57.7565 110.593 57.7041 110.301 57.7041C110.032 57.7041 109.8 57.7497 109.604 57.8408C109.408 57.932 109.255 58.055 109.146 58.21C109.037 58.3649 108.982 58.5404 108.982 58.7363H107.341C107.341 58.4447 107.412 58.1621 107.553 57.8887C107.695 57.6152 107.9 57.3714 108.169 57.1572C108.437 56.943 108.759 56.7744 109.132 56.6514C109.506 56.5283 109.925 56.4668 110.39 56.4668C110.946 56.4668 111.438 56.5602 111.867 56.7471C112.3 56.9339 112.639 57.2165 112.885 57.5947C113.136 57.9684 113.261 58.4378 113.261 59.0029V62.291C113.261 62.6283 113.284 62.9313 113.33 63.2002C113.38 63.4645 113.45 63.6947 113.542 63.8906V64H111.853C111.776 63.8223 111.714 63.5967 111.669 63.3232C111.628 63.0452 111.607 62.7764 111.607 62.5166ZM111.846 59.502L111.86 60.5205H110.677C110.372 60.5205 110.103 60.5501 109.871 60.6094C109.638 60.6641 109.445 60.7461 109.29 60.8555C109.135 60.9648 109.018 61.097 108.941 61.252C108.864 61.4069 108.825 61.5824 108.825 61.7783C108.825 61.9743 108.87 62.1543 108.962 62.3184C109.053 62.4779 109.185 62.6032 109.358 62.6943C109.536 62.7855 109.75 62.8311 110.001 62.8311C110.338 62.8311 110.632 62.7627 110.882 62.626C111.138 62.4847 111.338 62.3138 111.484 62.1133C111.63 61.9082 111.707 61.7145 111.716 61.5322L112.25 62.2637C112.195 62.4505 112.101 62.651 111.969 62.8652C111.837 63.0794 111.664 63.2845 111.45 63.4805C111.24 63.6719 110.987 63.8291 110.691 63.9521C110.399 64.0752 110.062 64.1367 109.679 64.1367C109.196 64.1367 108.766 64.041 108.387 63.8496C108.009 63.6536 107.713 63.3916 107.499 63.0635C107.284 62.7308 107.177 62.3548 107.177 61.9355C107.177 61.5436 107.25 61.1973 107.396 60.8965C107.546 60.5911 107.765 60.3359 108.052 60.1309C108.344 59.9258 108.699 59.7708 109.119 59.666C109.538 59.5566 110.017 59.502 110.554 59.502H111.846ZM118.475 56.6035V57.8066H114.305V56.6035H118.475ZM115.508 54.792H117.155V61.9561C117.155 62.1839 117.187 62.3594 117.251 62.4824C117.319 62.6009 117.413 62.6807 117.531 62.7217C117.65 62.7627 117.789 62.7832 117.948 62.7832C118.062 62.7832 118.172 62.7764 118.276 62.7627C118.381 62.749 118.465 62.7354 118.529 62.7217L118.536 63.9795C118.399 64.0205 118.24 64.057 118.058 64.0889C117.88 64.1208 117.675 64.1367 117.442 64.1367C117.064 64.1367 116.729 64.0706 116.438 63.9385C116.146 63.8018 115.918 63.5807 115.754 63.2754C115.59 62.9701 115.508 62.5645 115.508 62.0586V54.792ZM121.61 56.6035V64H119.955V56.6035H121.61ZM119.846 54.6621C119.846 54.4115 119.928 54.2041 120.092 54.04C120.261 53.8714 120.493 53.7871 120.789 53.7871C121.081 53.7871 121.311 53.8714 121.48 54.04C121.649 54.2041 121.733 54.4115 121.733 54.6621C121.733 54.9082 121.649 55.1133 121.48 55.2773C121.311 55.4414 121.081 55.5234 120.789 55.5234C120.493 55.5234 120.261 55.4414 120.092 55.2773C119.928 55.1133 119.846 54.9082 119.846 54.6621ZM123.2 60.3838V60.2266C123.2 59.6934 123.277 59.1989 123.432 58.7432C123.587 58.2829 123.811 57.8841 124.102 57.5469C124.399 57.2051 124.759 56.9408 125.182 56.7539C125.611 56.5625 126.094 56.4668 126.632 56.4668C127.174 56.4668 127.657 56.5625 128.081 56.7539C128.509 56.9408 128.872 57.2051 129.168 57.5469C129.464 57.8841 129.69 58.2829 129.845 58.7432C129.999 59.1989 130.077 59.6934 130.077 60.2266V60.3838C130.077 60.917 129.999 61.4115 129.845 61.8672C129.69 62.3229 129.464 62.7217 129.168 63.0635C128.872 63.4007 128.512 63.665 128.088 63.8564C127.664 64.0433 127.183 64.1367 126.645 64.1367C126.103 64.1367 125.618 64.0433 125.189 63.8564C124.765 63.665 124.405 63.4007 124.109 63.0635C123.813 62.7217 123.587 62.3229 123.432 61.8672C123.277 61.4115 123.2 60.917 123.2 60.3838ZM124.847 60.2266V60.3838C124.847 60.7165 124.882 61.0309 124.95 61.3271C125.018 61.6234 125.125 61.8831 125.271 62.1064C125.417 62.3298 125.604 62.5052 125.832 62.6328C126.06 62.7604 126.331 62.8242 126.645 62.8242C126.951 62.8242 127.215 62.7604 127.438 62.6328C127.666 62.5052 127.853 62.3298 127.999 62.1064C128.145 61.8831 128.252 61.6234 128.32 61.3271C128.393 61.0309 128.429 60.7165 128.429 60.3838V60.2266C128.429 59.8984 128.393 59.5885 128.32 59.2969C128.252 59.0007 128.142 58.7386 127.992 58.5107C127.846 58.2829 127.659 58.1051 127.431 57.9775C127.208 57.8454 126.942 57.7793 126.632 57.7793C126.322 57.7793 126.053 57.8454 125.825 57.9775C125.602 58.1051 125.417 58.2829 125.271 58.5107C125.125 58.7386 125.018 59.0007 124.95 59.2969C124.882 59.5885 124.847 59.8984 124.847 60.2266ZM133.192 58.1826V64H131.544V56.6035H133.096L133.192 58.1826ZM132.898 60.0283L132.364 60.0215C132.369 59.4974 132.442 59.0166 132.583 58.5791C132.729 58.1416 132.93 57.7656 133.185 57.4512C133.445 57.1367 133.754 56.8952 134.114 56.7266C134.474 56.5534 134.876 56.4668 135.318 56.4668C135.673 56.4668 135.994 56.5169 136.281 56.6172C136.573 56.7129 136.821 56.8701 137.027 57.0889C137.236 57.3076 137.396 57.5924 137.505 57.9434C137.614 58.2897 137.669 58.7158 137.669 59.2217V64H136.015V59.2148C136.015 58.8594 135.962 58.5791 135.858 58.374C135.757 58.1644 135.609 58.0163 135.413 57.9297C135.222 57.8385 134.983 57.793 134.696 57.793C134.413 57.793 134.16 57.8522 133.937 57.9707C133.713 58.0892 133.524 58.251 133.369 58.4561C133.219 58.6611 133.103 58.8981 133.021 59.167C132.939 59.4359 132.898 59.723 132.898 60.0283Z" fill="white"/>
</svg>