<svg width="12" height="17" viewBox="0 0 12 17" fill="none" xmlns="http://www.w3.org/2000/svg">
<path d="M3.07148 8.5373V4.16777C3.07148 3.29862 3.41675 2.46506 4.03134 1.85048C4.64592 1.23589 5.47948 0.890625 6.34863 0.890625C7.21779 0.890625 8.05134 1.23589 8.66593 1.85048C9.28051 2.46506 9.62578 3.29862 9.62578 4.16777V8.5373C9.62578 9.40646 9.28051 10.24 8.66593 10.8546C8.05134 11.4692 7.21779 11.8145 6.34863 11.8145C5.47948 11.8145 4.64592 11.4692 4.03134 10.8546C3.41675 10.24 3.07148 9.40646 3.07148 8.5373ZM11.8105 8.5373C11.8105 8.39244 11.753 8.25352 11.6506 8.15109C11.5481 8.04866 11.4092 7.99111 11.2644 7.99111C11.1195 7.99111 10.9806 8.04866 10.8781 8.15109C10.7757 8.25352 10.7182 8.39244 10.7182 8.5373C10.7182 9.69618 10.2578 10.8076 9.43836 11.627C8.61891 12.4465 7.5075 12.9068 6.34863 12.9068C5.18976 12.9068 4.07835 12.4465 3.25891 11.627C2.43946 10.8076 1.9791 9.69618 1.9791 8.5373C1.9791 8.39244 1.92156 8.25352 1.81913 8.15109C1.71669 8.04866 1.57777 7.99111 1.43291 7.99111C1.28805 7.99111 1.14913 8.04866 1.04669 8.15109C0.944264 8.25352 0.886719 8.39244 0.886719 8.5373C0.888382 9.89086 1.39189 11.1957 2.29988 12.1996C3.20787 13.2034 4.45583 13.8349 5.80244 13.9719V16.184C5.80244 16.3288 5.85999 16.4678 5.96242 16.5702C6.06485 16.6726 6.20377 16.7302 6.34863 16.7302C6.49349 16.7302 6.63242 16.6726 6.73485 16.5702C6.83728 16.4678 6.89482 16.3288 6.89482 16.184V13.9719C8.24143 13.8349 9.48939 13.2034 10.3974 12.1996C11.3054 11.1957 11.8089 9.89086 11.8105 8.5373Z" fill="#FAFAFA"/>
</svg>
