
<svg width="23" height="20" viewBox="0 0 23 20" fill="none" xmlns="http://www.w3.org/2000/svg">
<path d="M15.5117 18.8457C15.5117 19.0612 15.4261 19.2679 15.2737 19.4202C15.1214 19.5726 14.9147 19.6582 14.6992 19.6582H8.19922C7.98373 19.6582 7.77707 19.5726 7.62469 19.4202C7.47232 19.2679 7.38672 19.0612 7.38672 18.8457C7.38672 18.6302 7.47232 18.4236 7.62469 18.2712C7.77707 18.1188 7.98373 18.0332 8.19922 18.0332H14.6992C14.9147 18.0332 15.1214 18.1188 15.2737 18.2712C15.4261 18.4236 15.5117 18.6302 15.5117 18.8457ZM22.0117 2.5957V13.9707C22.0117 14.6172 21.7549 15.2372 21.2978 15.6943C20.8407 16.1514 20.2207 16.4082 19.5742 16.4082H3.32422C2.67775 16.4082 2.05777 16.1514 1.60065 15.6943C1.14353 15.2372 0.886719 14.6172 0.886719 13.9707L0.886719 2.5957C0.886719 1.94924 1.14353 1.32925 1.60065 0.87213C2.05777 0.415011 2.67775 0.158203 3.32422 0.158203L19.5742 0.158203C20.2207 0.158203 20.8407 0.415011 21.2978 0.87213C21.7549 1.32925 22.0117 1.94924 22.0117 2.5957ZM15.1055 8.2832C15.1054 8.15265 15.0739 8.02403 15.0137 7.90824C14.9534 7.79244 14.8661 7.69287 14.7591 7.61797L10.6966 4.77422C10.5749 4.68894 10.4321 4.63869 10.2838 4.62893C10.1355 4.61918 9.98733 4.65029 9.85548 4.71889C9.72362 4.78749 9.6131 4.89095 9.53596 5.01799C9.45882 5.14504 9.41801 5.29082 9.41797 5.43945V11.127C9.41801 11.2756 9.45882 11.4214 9.53596 11.5484C9.6131 11.6755 9.72362 11.7789 9.85548 11.8475C9.98733 11.9161 10.1355 11.9472 10.2838 11.9375C10.4321 11.9277 10.5749 11.8775 10.6966 11.7922L14.7591 8.94844C14.8661 8.87353 14.9534 8.77397 15.0137 8.65817C15.0739 8.54237 15.1054 8.41375 15.1055 8.2832Z" fill="#FAFAFA"/>
</svg>
